<svg height="526" width="720" xmlns="http://www.w3.org/2000/svg">
<rect height="526" fill="#555" width="720"></rect>
<text fill="#7f7" font-family="Courier New" font-size="12" xml:space="preserve">
<tspan x="10" y="26">2017-04-28 00:41:58 +0800</tspan>
<tspan x="10" y="42">[npm publishAfterCommitAfterBuild]</tspan>
<tspan x="10" y="58">2017-04-25 19:48:15 +0000</tspan>
<tspan x="10" y="74">[ci skip] npm published</tspan>
<tspan x="10" y="90"></tspan>
<tspan x="10" y="106">2017-04-26 02:04:01 +0800</tspan>
<tspan x="10" y="122">[npm publishAfterCommitAfterBuild]</tspan>
<tspan x="10" y="138">2017-04-18 05:40:39 +0000</tspan>
<tspan x="10" y="154">[ci skip] npm published</tspan>
<tspan x="10" y="170"></tspan>
<tspan x="10" y="186">2017-04-18 03:58:31 +0800</tspan>
<tspan x="10" y="202">[npm publishAfterCommitAfterBuild]</tspan>
<tspan x="10" y="218">2017-04-04 06:49:06 +0000</tspan>
<tspan x="10" y="234">[ci skip] npm published</tspan>
<tspan x="10" y="250"></tspan>
<tspan x="10" y="266">2017-04-04 06:47:08 +0000</tspan>
<tspan x="10" y="282">[npm publishAfterCommit]</tspan>
<tspan x="10" y="298"></tspan>
<tspan x="10" y="314">2017-04-04 14:44:10 +0800</tspan>
<tspan x="10" y="330">[npm publishAfterCommitAfterBuild]</tspan>
<tspan x="10" y="346">2017-04-03 16:46:08 +0000</tspan>
<tspan x="10" y="362">[ci skip] npm published</tspan>
<tspan x="10" y="378"></tspan>
<tspan x="10" y="394">2017-04-03 16:44:11 +0000</tspan>
<tspan x="10" y="410">[npm publishAfterCommit]</tspan>
<tspan x="10" y="426"></tspan>
<tspan x="10" y="442">2017-04-03 12:46:22 +0000</tspan>
<tspan x="10" y="458">[npm publishAfterCommitAfterBuild]</tspan>
<tspan x="10" y="474"></tspan>
<tspan x="10" y="490">2014-03-26 02:31:50 +0700</tspan>
<tspan x="10" y="506">add blank README.md</tspan>
</text>
</svg>
